####
#
# OBJ File Generated by Meshlab
#
####
# Object cuttingMesh.obj
#
# Vertices: 52
# Faces: 100
#
####
vn 1.5377203 1.2515990 -0.1386792
v 78.8126984 23.0696182 13.7434597
vn 3.4876492 2.5766983 0.3330299
v 78.6379166 23.3266068 14.1247787
vn 3.1052814 2.8121743 0.9817837
v 78.2867050 23.5920696 14.8460789
vn 2.8422806 2.8662157 1.6530788
v 77.5223770 23.6701946 16.3261757
vn 2.8695831 2.8315368 2.0006411
v 77.2570801 23.5897064 16.8206253
vn 2.6389785 2.7997589 2.1273212
v 77.1096878 23.5449905 17.0953197
vn 2.2766707 2.6160495 2.5735884
v 76.9029312 23.4202576 17.4695530
vn 2.1005094 2.3377199 3.0718997
v 76.7547150 23.2512817 17.7235718
vn 1.6066167 1.8225079 3.4429035
v 76.5466995 22.9401588 18.0667915
vn 1.4158931 1.0684869 3.9328439
v 76.3968048 22.5226631 18.2794571
vn 0.7614856 -0.4178562 3.6722836
v 76.3664932 22.3894615 18.3137207
vn 1.2386737 -1.9899899 3.5468159
v 76.4229431 22.0345688 18.1418190
vn 1.4475284 -2.5804088 3.0700269
v 76.5383453 21.6975632 17.8600349
vn 1.6628016 -3.0533290 2.2210917
v 76.8874817 21.1214523 17.0870533
vn 2.2346985 -3.3434496 1.6443191
v 77.6206665 20.7858620 15.6205444
vn 2.4388385 -3.3792768 1.3488184
v 78.0320892 20.7246780 14.8203869
vn 2.5892324 -3.3844261 1.1884997
v 78.5323715 20.7524529 13.8657475
vn 2.6609156 -3.3897634 1.2111863
v 78.9151611 20.8065834 13.1412077
vn 2.5914922 -3.3672099 1.0475218
v 79.1800385 20.8249416 12.6364193
vn 2.7808273 -3.3605354 0.9449633
v 79.4453430 20.9054317 12.1419668
vn 2.7808154 -3.3606300 0.9449733
v 79.6222000 20.9590912 11.8123360
vn 2.7807980 -3.3606987 0.9449829
v 80.0643616 21.0932388 10.9882498
vn 2.7808254 -3.3605590 0.9449830
v 80.2412262 21.1468983 10.6586218
vn 1.0462924 -0.2266315 -0.5554581
v 80.3886108 21.1916122 10.3839254
vn 2.3226981 1.1958114 0.4210786
v 78.8126984 23.0696182 13.7434597
vn 5.5524712 -0.5189630 2.8946879
v 78.0519028 22.0972404 15.0284481
vn -0.4606372 1.4237707 -1.1880693
v -71.3748779 41.1032295 -71.9729233
vn -1.6301219 3.0711093 -2.3961539
v -71.8788757 41.8251457 -70.9123764
vn -1.9420625 3.3009031 -1.6989421
v -72.8894730 42.5723991 -68.9055405
vn -2.3638525 3.3669274 -1.0846567
v -75.0719757 42.7964134 -64.7785339
vn -2.6776280 3.3647258 -0.9014749
v -75.8236008 42.5717659 -63.3966141
vn -2.6590071 3.3000898 -0.6431746
v -76.2389069 42.4466743 -62.6276550
vn -2.8491530 3.0986538 -0.1106917
v -76.8213577 42.0973434 -61.5799789
vn -3.2021959 2.8390603 0.2965488
v -77.2400818 41.6240120 -60.8694839
vn -3.3070619 2.2872534 0.8619645
v -77.8271408 40.7522469 -59.9092560
vn -3.7208107 1.5630276 1.2391717
v -78.2534790 39.5824699 -59.3161163
vn -3.3907778 0.0092365 1.4851077
v -78.3405380 39.2092552 -59.2210922
vn -3.8355589 -1.4662439 0.8924490
v -78.1936264 38.2154617 -59.7087631
vn -3.6716199 -2.0521445 0.3923114
v -77.8808823 37.2716751 -60.5043030
vn -3.1807032 -2.5598869 -0.3166511
v -76.9144592 35.6575317 -62.6781082
vn -3.0648310 -2.8240912 -1.1511632
v -74.8417130 34.7149849 -66.7810745
vn -2.9215562 -2.8607097 -1.5051811
v -73.6601868 34.5408936 -69.0091095
vn -2.8548784 -2.8439593 -1.7327950
v -72.2075882 34.6141548 -71.6569901
vn -2.9053724 -2.8150175 -1.7906246
v -71.0843964 34.7611961 -73.6586990
vn -2.7124202 -2.8054180 -1.8305118
v -70.3008423 34.8087807 -75.0490189
vn -2.7159812 -2.7633393 -2.0366459
v -69.5121384 35.0299873 -76.4073639
vn -2.7085023 -2.7335825 -2.0430534
v -68.9836884 35.1771431 -77.3109283
vn -2.7000666 -2.6963904 -2.0485301
v -67.6533508 35.5438728 -79.5626984
vn -2.6950760 -2.6750774 -2.0515454
v -67.1176147 35.6901016 -80.4604797
vn -0.0592947 -0.1004827 -1.0860407
v -66.6695938 35.8117447 -81.2073212
vn -1.3391932 1.5459880 -1.5682514
v -71.3748779 41.1032295 -71.9729233
vn -5.5049238 0.5655589 -2.9746640
v -73.6023483 38.3885880 -68.4245300
# 52 vertices, 0 vertices normals

f 1//1 2//2 26//26
f 2//2 3//3 26//26
f 3//3 4//4 26//26
f 4//4 5//5 26//26
f 5//5 6//6 26//26
f 6//6 7//7 26//26
f 7//7 8//8 26//26
f 8//8 9//9 26//26
f 9//9 10//10 26//26
f 10//10 11//11 26//26
f 11//11 12//12 26//26
f 12//12 13//13 26//26
f 13//13 14//14 26//26
f 14//14 15//15 26//26
f 15//15 16//16 26//26
f 16//16 17//17 26//26
f 17//17 18//18 26//26
f 18//18 19//19 26//26
f 19//19 20//20 26//26
f 20//20 21//21 26//26
f 21//21 22//22 26//26
f 22//22 23//23 26//26
f 23//23 24//24 26//26
f 24//24 25//25 26//26
f 25//25 1//1 26//26
f 28//28 27//27 52//52
f 29//29 28//28 52//52
f 30//30 29//29 52//52
f 31//31 30//30 52//52
f 32//32 31//31 52//52
f 33//33 32//32 52//52
f 34//34 33//33 52//52
f 35//35 34//34 52//52
f 36//36 35//35 52//52
f 37//37 36//36 52//52
f 38//38 37//37 52//52
f 39//39 38//38 52//52
f 40//40 39//39 52//52
f 41//41 40//40 52//52
f 42//42 41//41 52//52
f 43//43 42//42 52//52
f 44//44 43//43 52//52
f 45//45 44//44 52//52
f 46//46 45//45 52//52
f 47//47 46//46 52//52
f 48//48 47//47 52//52
f 49//49 48//48 52//52
f 50//50 49//49 52//52
f 51//51 50//50 52//52
f 27//27 51//51 52//52
f 2//2 1//1 27//27
f 27//27 28//28 2//2
f 3//3 2//2 28//28
f 28//28 29//29 3//3
f 4//4 3//3 29//29
f 29//29 30//30 4//4
f 5//5 4//4 30//30
f 30//30 31//31 5//5
f 6//6 5//5 31//31
f 31//31 32//32 6//6
f 7//7 6//6 32//32
f 32//32 33//33 7//7
f 8//8 7//7 33//33
f 33//33 34//34 8//8
f 9//9 8//8 34//34
f 34//34 35//35 9//9
f 10//10 9//9 35//35
f 35//35 36//36 10//10
f 11//11 10//10 36//36
f 36//36 37//37 11//11
f 12//12 11//11 37//37
f 37//37 38//38 12//12
f 13//13 12//12 38//38
f 38//38 39//39 13//13
f 14//14 13//13 39//39
f 39//39 40//40 14//14
f 15//15 14//14 40//40
f 40//40 41//41 15//15
f 16//16 15//15 41//41
f 41//41 42//42 16//16
f 17//17 16//16 42//42
f 42//42 43//43 17//17
f 18//18 17//17 43//43
f 43//43 44//44 18//18
f 19//19 18//18 44//44
f 44//44 45//45 19//19
f 20//20 19//19 45//45
f 45//45 46//46 20//20
f 21//21 20//20 46//46
f 46//46 47//47 21//21
f 22//22 21//21 47//47
f 47//47 48//48 22//22
f 23//23 22//22 48//48
f 48//48 49//49 23//23
f 24//24 23//23 49//49
f 49//49 50//50 24//24
f 25//25 24//24 50//50
f 50//50 51//51 25//25
f 1//1 25//25 51//51
f 51//51 27//27 1//1
# 100 faces, 0 coords texture

# End of File
