# Blender 4.0.2
# www.blender.org
mtllib cuttingMesh.mtl
o cuttingMesh
v 78.812698 23.069618 13.743460
v 78.637917 23.326607 14.124779
v 78.286705 23.592070 14.846079
v 77.522377 23.670195 16.326176
v 77.257080 23.589706 16.820625
v 77.109688 23.544991 17.095320
v 76.902931 23.420258 17.469553
v 76.754715 23.251282 17.723572
v 76.546700 22.940159 18.066792
v 76.396805 22.522663 18.279457
v 76.366493 22.389462 18.313721
v 76.422943 22.034569 18.141819
v 76.538345 21.697563 17.860035
v 76.887482 21.121452 17.087053
v 77.620667 20.785862 15.620544
v 78.032089 20.724678 14.820387
v 78.532372 20.752453 13.865747
v 78.915161 20.806583 13.141208
v 79.180038 20.824942 12.636419
v 79.445343 20.905432 12.141967
v 79.622200 20.959091 11.812336
v 80.064362 21.093239 10.988250
v 80.241226 21.146898 10.658622
v 80.388611 21.191612 10.383925
v 78.812698 23.069618 13.743460
v 78.051903 22.097240 15.028448
v -71.374878 41.103230 -71.972923
v -71.878876 41.825146 -70.912376
v -72.889473 42.572399 -68.905540
v -75.071976 42.796413 -64.778534
v -75.823601 42.571766 -63.396614
v -76.238907 42.446674 -62.627655
v -76.821358 42.097343 -61.579979
v -77.240082 41.624012 -60.869484
v -77.827141 40.752247 -59.909256
v -78.253479 39.582470 -59.316116
v -78.340538 39.209255 -59.221092
v -78.193626 38.215462 -59.708763
v -77.880882 37.271675 -60.504303
v -76.914459 35.657532 -62.678108
v -74.841713 34.714985 -66.781075
v -73.660187 34.540894 -69.009109
v -72.207588 34.614155 -71.656990
v -71.084396 34.761196 -73.658699
v -70.300842 34.808781 -75.049019
v -69.512138 35.029987 -76.407364
v -68.983688 35.177143 -77.310928
v -67.653351 35.543873 -79.562698
v -67.117615 35.690102 -80.460480
v -66.669594 35.811745 -81.207321
v -71.374878 41.103230 -71.972923
v -73.602348 38.388588 -68.424530
vn 0.8837 -0.0826 0.4607
vn -0.1594 0.9552 0.2494
vn -0.8736 0.0922 -0.4779
vn -0.8746 0.0943 -0.4756
vn -0.8778 0.0956 -0.4694
vn -0.8810 0.0905 -0.4645
vn -0.8824 0.0872 -0.4624
vn -0.8827 0.0864 -0.4619
vn -0.8825 0.0870 -0.4622
vn -0.8828 0.0858 -0.4618
vn -0.8825 0.0873 -0.4621
vn -0.8824 0.0882 -0.4621
vn -0.8814 0.0966 -0.4624
vn -0.8813 0.0977 -0.4623
vn -0.8814 0.0954 -0.4627
vn -0.8807 0.0889 -0.4653
vn -0.8775 0.0849 -0.4720
vn -0.8745 0.0857 -0.4774
vn -0.8713 0.0910 -0.4822
vn -0.8684 0.0985 -0.4860
vn -0.8674 0.1015 -0.4871
vn -0.8657 0.1075 -0.4888
vn -0.8633 0.1170 -0.4910
vn -0.8607 0.1289 -0.4926
vn -0.8592 0.1356 -0.4934
vn -0.8699 0.0768 -0.4873
vn 0.3380 0.8449 -0.4145
vn 0.2445 0.9425 -0.2278
vn 0.1195 0.9928 0.0093
vn 0.0297 0.9839 0.1761
vn -0.0371 0.9540 0.2975
vn -0.1461 0.8609 0.4874
vn -0.2055 0.7838 0.5860
vn -0.3364 0.5205 0.7848
vn -0.3982 0.3125 0.8624
vn -0.4391 -0.4473 0.7792
vn -0.3900 -0.6656 0.6363
vn -0.3208 -0.8231 0.4686
vn -0.1653 -0.9762 0.1408
vn -0.1033 -0.9944 0.0229
vn -0.1032 -0.9944 0.0229
vn -0.0580 -0.9966 -0.0594
vn -0.0379 -0.9948 -0.0944
vn -0.0550 -0.9964 -0.0651
vn 0.0015 -0.9871 -0.1599
vn 0.3065 0.8848 -0.3509
s 0
f 1//1 2//1 26//1
f 2//1 3//1 26//1
f 3//1 4//1 26//1
f 4//1 5//1 26//1
f 5//1 6//1 26//1
f 6//1 7//1 26//1
f 7//1 8//1 26//1
f 8//1 9//1 26//1
f 9//1 10//1 26//1
f 10//1 11//1 26//1
f 11//1 12//1 26//1
f 12//1 13//1 26//1
f 13//1 14//1 26//1
f 14//1 15//1 26//1
f 15//1 16//1 26//1
f 16//1 17//1 26//1
f 17//1 18//1 26//1
f 18//1 19//1 26//1
f 19//1 20//1 26//1
f 20//1 21//1 26//1
f 21//1 22//1 26//1
f 22//1 23//1 26//1
f 23//1 24//1 26//1
f 24//1 25//1 26//1
f 25//2 1//2 26//2
f 28//3 27//3 52//3
f 29//4 28//4 52//4
f 30//5 29//5 52//5
f 31//6 30//6 52//6
f 32//7 31//7 52//7
f 33//8 32//8 52//8
f 34//9 33//9 52//9
f 35//10 34//10 52//10
f 36//11 35//11 52//11
f 37//12 36//12 52//12
f 38//13 37//13 52//13
f 39//14 38//14 52//14
f 40//15 39//15 52//15
f 41//16 40//16 52//16
f 42//17 41//17 52//17
f 43//18 42//18 52//18
f 44//19 43//19 52//19
f 45//20 44//20 52//20
f 46//21 45//21 52//21
f 47//22 46//22 52//22
f 48//23 47//23 52//23
f 49//24 48//24 52//24
f 50//25 49//25 52//25
f 51//26 50//26 52//26
f 27//2 51//2 52//2
f 2//27 1//27 27//27
f 27//27 28//27 2//27
f 3//28 2//28 28//28
f 28//28 29//28 3//28
f 4//29 3//29 29//29
f 29//29 30//29 4//29
f 5//30 4//30 30//30
f 30//30 31//30 5//30
f 6//30 5//30 31//30
f 31//30 32//30 6//30
f 7//31 6//31 32//31
f 32//31 33//31 7//31
f 8//32 7//32 33//32
f 33//32 34//32 8//32
f 9//33 8//33 34//33
f 34//33 35//33 9//33
f 10//34 9//34 35//34
f 35//34 36//34 10//34
f 11//35 10//35 36//35
f 36//35 37//35 11//35
f 12//36 11//36 37//36
f 37//36 38//36 12//36
f 13//37 12//37 38//37
f 38//37 39//37 13//37
f 14//38 13//38 39//38
f 39//38 40//38 14//38
f 15//39 14//39 40//39
f 40//39 41//39 15//39
f 16//40 15//40 41//40
f 41//41 42//41 16//41
f 17//42 16//42 42//42
f 42//42 43//42 17//42
f 18//43 17//43 43//43
f 43//43 44//43 18//43
f 19//44 18//44 44//44
f 44//44 45//44 19//44
f 20//45 19//45 45//45
f 45//45 46//45 20//45
f 21//45 20//45 46//45
f 46//45 47//45 21//45
f 22//45 21//45 47//45
f 47//45 48//45 22//45
f 23//45 22//45 48//45
f 48//45 49//45 23//45
f 24//45 23//45 49//45
f 49//45 50//45 24//45
f 25//46 24//46 50//46
f 50//46 51//46 25//46
f 1//2 25//2 51//2
f 51//2 27//2 1//2
