####
#
# OBJ File Generated by Meshlab
#
####
# Object triangle_split.obj
#
# Vertices: 45
# Faces: 64
#
####
vn 0.0000000 0.0000000 1.0000000
v -0.6689580 0.7591390 -0.0000000
vn 0.0000000 0.0000000 1.0000000
v 0.6689580 0.7591390 -0.0000000
vn 0.0000000 0.0000000 1.0000000
v -0.6689580 2.0970559 0.0000000
vn 0.0000000 0.0000000 1.0000000
v 0.0000000 1.4280975 0.0000000
vn 0.0000000 0.0000000 1.0000000
v -0.6689580 1.4280975 0.0000000
vn 0.0000000 0.0000000 1.0000000
v 0.0000000 0.7591390 -0.0000000
vn 0.0000000 0.0000000 1.0000000
v -0.3344790 1.4280975 0.0000000
vn 0.0000000 0.0000000 1.0000000
v -0.3344790 1.0936183 0.0000000
vn 0.0000000 0.0000000 1.0000000
v 0.0000000 1.0936183 0.0000000
vn 0.0000000 0.0000000 1.0000000
v 0.3344790 1.0936183 0.0000000
vn 0.0000000 0.0000000 1.0000000
v 0.3344790 0.7591390 -0.0000000
vn 0.0000000 0.0000000 1.0000000
v -0.3344790 1.7625767 0.0000000
vn 0.0000000 0.0000000 1.0000000
v -0.6689580 1.7625767 0.0000000
vn 0.0000000 0.0000000 1.0000000
v -0.6689580 1.0936183 0.0000000
vn 0.0000000 0.0000000 1.0000000
v -0.3344790 0.7591390 -0.0000000
vn 0.0000000 0.0000000 1.0000000
v -0.3344790 1.2608578 0.0000000
vn 0.0000000 0.0000000 1.0000000
v -0.1672395 1.0936183 0.0000000
vn 0.0000000 0.0000000 1.0000000
v -0.1672395 1.2608578 0.0000000
vn 0.0000000 0.0000000 1.0000000
v 0.1672395 1.0936183 0.0000000
vn 0.0000000 0.0000000 1.0000000
v 0.1672395 0.9263786 0.0000000
vn 0.0000000 0.0000000 1.0000000
v 0.3344790 0.9263786 0.0000000
vn 0.0000000 0.0000000 1.0000000
v -0.5017185 1.7625767 0.0000000
vn 0.0000000 0.0000000 1.0000000
v -0.5017185 1.5953372 0.0000000
vn 0.0000000 0.0000000 1.0000000
v -0.3344790 1.5953372 0.0000000
vn 0.0000000 0.0000000 1.0000000
v -0.5017185 1.0936183 0.0000000
vn 0.0000000 0.0000000 1.0000000
v -0.5017185 0.9263786 0.0000000
vn 0.0000000 0.0000000 1.0000000
v -0.3344790 0.9263786 0.0000000
vn 0.0000000 0.0000000 1.0000000
v -0.1672395 1.4280975 0.0000000
vn 0.0000000 0.0000000 1.0000000
v 0.0000000 1.2608578 0.0000000
vn 0.0000000 0.0000000 1.0000000
v -0.5017185 1.4280975 0.0000000
vn 0.0000000 0.0000000 1.0000000
v -0.5017185 1.2608578 0.0000000
vn 0.0000000 0.0000000 1.0000000
v -0.1672395 0.9263786 0.0000000
vn 0.0000000 0.0000000 1.0000000
v 0.0000000 0.9263786 0.0000000
vn 0.0000000 0.0000000 1.0000000
v 0.5017185 0.9263786 0.0000000
vn 0.0000000 0.0000000 1.0000000
v 0.5017185 0.7591390 -0.0000000
vn 0.0000000 0.0000000 1.0000000
v 0.1672395 1.2608578 0.0000000
vn 0.0000000 0.0000000 1.0000000
v 0.1672395 0.7591390 -0.0000000
vn 0.0000000 0.0000000 1.0000000
v -0.1672395 1.5953372 0.0000000
vn 0.0000000 0.0000000 1.0000000
v -0.5017185 1.9298162 0.0000000
vn 0.0000000 0.0000000 1.0000000
v -0.6689580 1.9298162 0.0000000
vn 0.0000000 0.0000000 1.0000000
v -0.6689580 1.5953372 0.0000000
vn 0.0000000 0.0000000 1.0000000
v -0.1672395 0.7591390 -0.0000000
vn 0.0000000 0.0000000 1.0000000
v -0.6689580 1.2608578 0.0000000
vn 0.0000000 0.0000000 1.0000000
v -0.6689580 0.9263786 0.0000000
vn 0.0000000 0.0000000 1.0000000
v -0.5017185 0.7591390 -0.0000000
# 45 vertices, 0 vertices normals

f 16//16 17//17 18//18
f 19//19 20//20 21//21
f 22//22 23//23 24//24
f 25//25 26//26 27//27
f 28//28 18//18 29//29
f 30//30 31//31 16//16
f 17//17 32//32 33//33
f 34//34 21//21 35//35
f 36//36 29//29 19//19
f 20//20 33//33 37//37
f 38//38 24//24 28//28
f 39//39 40//40 22//22
f 23//23 41//41 30//30
f 32//32 27//27 42//42
f 31//31 43//43 25//25
f 26//26 44//44 45//45
f 7//7 16//16 18//18
f 16//16 8//8 17//17
f 18//18 17//17 9//9
f 10//10 19//19 21//21
f 19//19 9//9 20//20
f 21//21 20//20 11//11
f 12//12 22//22 24//24
f 22//22 13//13 23//23
f 24//24 23//23 7//7
f 8//8 25//25 27//27
f 25//25 14//14 26//26
f 27//27 26//26 15//15
f 4//4 28//28 29//29
f 28//28 7//7 18//18
f 29//29 18//18 9//9
f 7//7 30//30 16//16
f 30//30 5//5 31//31
f 16//16 31//31 8//8
f 9//9 17//17 33//33
f 17//17 8//8 32//32
f 33//33 32//32 6//6
f 2//2 34//34 35//35
f 34//34 10//10 21//21
f 35//35 21//21 11//11
f 10//10 36//36 19//19
f 36//36 4//4 29//29
f 19//19 29//29 9//9
f 11//11 20//20 37//37
f 20//20 9//9 33//33
f 37//37 33//33 6//6
f 4//4 38//38 28//28
f 38//38 12//12 24//24
f 28//28 24//24 7//7
f 12//12 39//39 22//22
f 39//39 3//3 40//40
f 22//22 40//40 13//13
f 7//7 23//23 30//30
f 23//23 13//13 41//41
f 30//30 41//41 5//5
f 6//6 32//32 42//42
f 32//32 8//8 27//27
f 42//42 27//27 15//15
f 8//8 31//31 25//25
f 31//31 5//5 43//43
f 25//25 43//43 14//14
f 15//15 26//26 45//45
f 26//26 14//14 44//44
f 45//45 44//44 1//1
# 64 faces, 0 coords texture

# End of File
